<svg width="157" height="164" viewBox="0 0 157 164" fill="none" xmlns="http://www.w3.org/2000/svg">
<path d="M25.4531 122.961H73.9688V134H11.8828V31.625H25.4531V122.961ZM115.359 134C114.859 133 114.453 131.219 114.141 128.656C110.109 132.844 105.297 134.938 99.7031 134.938C94.7031 134.938 90.5938 133.531 87.375 130.719C84.1875 127.875 82.5938 124.281 82.5938 119.938C82.5938 114.656 84.5938 110.562 88.5938 107.656C92.625 104.719 98.2812 103.25 105.562 103.25H114V99.2656C114 96.2344 113.094 93.8281 111.281 92.0469C109.469 90.2344 106.797 89.3281 103.266 89.3281C100.172 89.3281 97.5781 90.1094 95.4844 91.6719C93.3906 93.2344 92.3438 95.125 92.3438 97.3438H83.625C83.625 94.8125 84.5156 92.375 86.2969 90.0312C88.1094 87.6562 90.5469 85.7812 93.6094 84.4062C96.7031 83.0312 100.094 82.3438 103.781 82.3438C109.625 82.3438 114.203 83.8125 117.516 86.75C120.828 89.6562 122.547 93.6719 122.672 98.7969V122.141C122.672 126.797 123.266 130.5 124.453 133.25V134H115.359ZM100.969 127.391C103.688 127.391 106.266 126.688 108.703 125.281C111.141 123.875 112.906 122.047 114 119.797V109.391H107.203C96.5781 109.391 91.2656 112.5 91.2656 118.719C91.2656 121.438 92.1719 123.562 93.9844 125.094C95.7969 126.625 98.125 127.391 100.969 127.391Z" fill="black"/>
<path d="M49.0898 73.4799C50.25 73.4799 51.2637 73.1283 52.1309 72.4252C52.998 71.722 53.4785 70.8431 53.5723 69.7885H56.6484C56.5898 70.8783 56.2148 71.9154 55.5234 72.8998C54.832 73.8842 53.9062 74.6693 52.7461 75.2552C51.5977 75.8412 50.3789 76.1342 49.0898 76.1342C46.5 76.1342 44.4375 75.2728 42.9023 73.5502C41.3789 71.8158 40.6172 69.4486 40.6172 66.4486V65.9037C40.6172 64.0521 40.957 62.4056 41.6367 60.9642C42.3164 59.5228 43.2891 58.4037 44.5547 57.6068C45.832 56.8099 47.3379 56.4115 49.0723 56.4115C51.2051 56.4115 52.9746 57.0502 54.3809 58.3275C55.7988 59.6049 56.5547 61.2631 56.6484 63.3021H53.5723C53.4785 62.0717 53.0098 61.0638 52.166 60.2787C51.334 59.4818 50.3027 59.0834 49.0723 59.0834C47.4199 59.0834 46.1367 59.681 45.2227 60.8763C44.3203 62.0599 43.8691 63.7767 43.8691 66.0267V66.642C43.8691 68.8334 44.3203 70.5209 45.2227 71.7045C46.125 72.8881 47.4141 73.4799 49.0898 73.4799ZM59.4434 66.097C59.4434 64.2338 59.8066 62.558 60.5332 61.0697C61.2715 59.5814 62.291 58.433 63.5918 57.6244C64.9043 56.8158 66.3984 56.4115 68.0742 56.4115C70.6641 56.4115 72.7559 57.308 74.3496 59.101C75.9551 60.8939 76.7578 63.2787 76.7578 66.2552V66.4838C76.7578 68.3353 76.4004 69.9994 75.6855 71.476C74.9824 72.9408 73.9688 74.0834 72.6445 74.9037C71.332 75.724 69.8203 76.1342 68.1094 76.1342C65.5312 76.1342 63.4395 75.2377 61.834 73.4447C60.2402 71.6517 59.4434 69.2787 59.4434 66.3256V66.097ZM62.7129 66.4838C62.7129 68.5931 63.1992 70.2865 64.1719 71.5638C65.1562 72.8412 66.4688 73.4799 68.1094 73.4799C69.7617 73.4799 71.0742 72.8353 72.0469 71.5463C73.0195 70.2455 73.5059 68.4291 73.5059 66.097C73.5059 64.0111 73.0078 62.3236 72.0117 61.0345C71.0273 59.7338 69.7148 59.0834 68.0742 59.0834C66.4688 59.0834 65.1738 59.722 64.1895 60.9994C63.2051 62.2767 62.7129 64.1049 62.7129 66.4838ZM80.0449 66.1146C80.0449 63.1967 80.7363 60.8529 82.1191 59.0834C83.502 57.3021 85.3125 56.4115 87.5508 56.4115C89.7773 56.4115 91.541 57.1732 92.8418 58.6967V48.7826H96.0938V75.7826H93.1055L92.9473 73.7435C91.6465 75.3373 89.8359 76.1342 87.5156 76.1342C85.3125 76.1342 83.5137 75.2318 82.1191 73.4271C80.7363 71.6224 80.0449 69.267 80.0449 66.3607V66.1146ZM83.2969 66.4838C83.2969 68.64 83.7422 70.3275 84.6328 71.5463C85.5234 72.765 86.7539 73.3744 88.3242 73.3744C90.3867 73.3744 91.8926 72.4486 92.8418 70.597V61.8607C91.8691 60.0677 90.375 59.1713 88.3594 59.1713C86.7656 59.1713 85.5234 59.7865 84.6328 61.017C83.7422 62.2474 83.2969 64.0697 83.2969 66.4838ZM109.049 76.1342C106.471 76.1342 104.373 75.2904 102.756 73.6029C101.139 71.9037 100.33 69.6361 100.33 66.8002V66.2025C100.33 64.3158 100.688 62.6342 101.402 61.1576C102.129 59.6693 103.137 58.5092 104.426 57.6771C105.727 56.8334 107.133 56.4115 108.645 56.4115C111.117 56.4115 113.039 57.226 114.41 58.8549C115.781 60.4838 116.467 62.8158 116.467 65.851V67.2045H103.582C103.629 69.0795 104.174 70.597 105.217 71.7572C106.271 72.9056 107.607 73.4799 109.225 73.4799C110.373 73.4799 111.346 73.2455 112.143 72.7767C112.939 72.308 113.637 71.6869 114.234 70.9135L116.221 72.4603C114.627 74.9095 112.236 76.1342 109.049 76.1342ZM108.645 59.0834C107.332 59.0834 106.23 59.5638 105.34 60.5248C104.449 61.474 103.898 62.8099 103.688 64.5326H113.215V64.2865C113.121 62.6342 112.676 61.3568 111.879 60.4545C111.082 59.5404 110.004 59.0834 108.645 59.0834Z" fill="black"/>
</svg>
